#!OML:ASF X:\für Bonn\!DataBase\2005_08_10_Bjorn_Final\c3d\bjorn.ASF
:FULLY-SPECIFIED
:DEGREES
32
root -14.2932 19.1936 -0.78598 1221.26 264.485 -146.32
lowerback -3.4057 2.87468 -6.02151
upperback 9.24424 4.55829 -4.84517
thorax 11.8441 1.76609 -1.32724
lowerneck -2.23927 -6.15229 -0.345661
upperneck 3.50888 -8.32159 2.87077
head 1.61134 -4.10898 0.770221
rclavicle -1.43125e-014 7.95139e-014
rhumerus -8.14692 4.90089 -85.7694
rradius 74.7393
rwrist -18.8055
rhand -14.1435 10.5087
rfingers 7.12502
rthumb 11.9907 -19.1279
lclavicle -1.43125e-014 7.95139e-014
lhumerus -24.5135 4.11373 81.275
lradius 28.9431
lwrist -20.5774
lhand -20.5903 -5.81137
lfingers 7.12502
lthumb 5.76995 24.0901
rfemur -7.91545 -3.96845 8.82731
rtibia 61.4555
rfoot 3.17254 15.0597
rtoes -12.6033
lfemur -10.3137 3.71123 -21.895
ltibia 28.7061
lfoot -6.55438 -5.68451
ltoes -7.9747
33
root -14.4057 19.2077 -0.779264 1222.78 264.407 -147.755
lowerback -3.41539 2.86963 -6.00844
upperback 9.15383 4.54972 -4.84774
thorax 11.7461 1.76871 -1.3363
lowerneck -2.08917 -6.21009 -0.468895
upperneck 3.51626 -8.39979 2.99609
head 1.60131 -4.14887 0.831888
rclavicle -2.62396e-014 0
rhumerus -7.05618 4.8226 -85.015
rradius 75.2017
rwrist -18.9057
rhand -14.3093 10.5641
rfingers 7.12502
rthumb 11.8308 -19.0817
lclavicle -2.62396e-014 0
lhumerus -24.2583 3.55707 81.3669
lradius 29.5462
lwrist -20.0281
lhand -21.0176 -5.65485
lfingers 7.12502
lthumb 5.35738 24.2574
rfemur -8.81675 -4.09957 8.99081
rtibia 61.2598
rfoot 2.49063 15.3576
rtoes -12.3685
lfemur -9.84352 3.7321 -21.7936
ltibia 28.3788
lfoot -6.7488 -5.86081
ltoes -7.82282
34
root -14.5174 19.2207 -0.773546 1224.25 264.289 -149.171
lowerback -3.43957 2.85043 -6.04294
upperback 9.10391 4.52705 -4.81805
thorax 11.6979 1.75625 -1.28596
lowerneck -1.97063 -6.25828 -0.627822
upperneck 3.51768 -8.46223 3.08557
head 1.59466 -4.18162 0.887851
rclavicle -1.19271e-014 -3.81667e-014
rhumerus -5.87985 4.77544 -84.1796
rradius 75.6658
rwrist -19.0963
rhand -14.4583 10.5539
rfingers 7.12502
rthumb 11.6872 -19.1001
lclavicle -1.19271e-014 -3.81667e-014
lhumerus -23.9983 3.02817 81.5123
lradius 30.2147
lwrist -19.4464
lhand -21.3689 -5.4834
lfingers 7.12502
lthumb 5.01814 24.4372
rfemur -9.66491 -4.20267 9.14483
rtibia 60.9387
rfoot 1.73893 15.6922
rtoes -12.3661
lfemur -9.34793 3.75979 -21.7108
ltibia 28.0303
lfoot -6.90634 -6.07875
ltoes -7.91155
35
root -14.6303 19.2469 -0.767141 1225.39 264.136 -150.242
lowerback -3.49396 2.82631 -6.10366
upperback 9.06633 4.50463 -4.80193
thorax 11.6824 1.74093 -1.23501
lowerneck -1.85818 -6.30415 -0.779031
upperneck 3.49507 -8.52139 3.1742
head 1.5811 -4.21288 0.942672
rclavicle -4.73108e-014 0
rhumerus -4.63859 4.74872 -83.2971
rradius 76.1013
rwrist -19.3274
rhand -14.6692 10.6088
rfingers 7.12502
rthumb 11.4838 -19.0567
lclavicle -4.73108e-014 0
lhumerus -23.7426 2.44155 81.6554
lradius 30.9314
lwrist -18.7076
lhand -21.6966 -5.3216
lfingers 7.12502
lthumb 4.70176 24.6062
rfemur -10.4593 -4.30098 9.24787
rtibia 60.4403
rfoot 1.05655 15.9997
rtoes -11.6546
lfemur -8.82458 3.75666 -21.6725
ltibia 27.6458
lfoot -7.04969 -6.26551
ltoes -7.69781
36
root -14.7404 19.2578 -0.761627 1226.66 263.984 -151.497
lowerback -3.49759 2.79701 -6.1372
upperback 9.04262 4.46689 -4.77523
thorax 11.6528 1.72024 -1.19171
lowerneck -1.75677 -6.3445 -0.87133
upperneck 3.47579 -8.57284 3.20424
head 1.56454 -4.24037 0.969553
rclavicle -4.77083e-015 -1.74931e-014
rhumerus -3.3861 4.75243 -82.3839
rradius 76.5532
rwrist -19.655
rhand -14.9717 10.7193
rfingers 7.12502
rthumb 11.1921 -18.9622
lclavicle -4.77083e-015 -1.74931e-014
lhumerus -23.4996 1.94046 81.7829
lradius 31.6417
lwrist -17.8999
lhand -21.9506 -5.31798
lfingers 7.12502
lthumb 4.45649 24.6151
rfemur -11.2123 -4.37153 9.37897
rtibia 59.8806
rfoot 0.319265 16.2785
rtoes -11.0056
lfemur -8.28738 3.78122 -21.602
ltibia 27.2856
lfoot -7.20705 -6.49677
ltoes -7.60658
37
root -14.8488 19.2684 -0.757275 1228.3 263.82 -153.104
lowerback -3.49483 2.77805 -6.12076
upperback 9.01823 4.43827 -4.74604
thorax 11.6214 1.70874 -1.17217
lowerneck -1.65611 -6.39817 -0.945788
upperneck 3.44007 -8.64301 3.2493
head 1.54329 -4.27694 0.99802
rclavicle -3.33958e-014 1.59028e-015
rhumerus -2.11861 4.69128 -81.4409
rradius 77.0047
rwrist -20.0255
rhand -15.2761 10.7976
rfingers 7.12502
rthumb 10.8984 -18.8995
lclavicle -3.33958e-014 1.59028e-015
lhumerus -23.2518 1.35952 81.9177
lradius 32.3657
lwrist -17.0278
lhand -22.2004 -5.28435
lfingers 7.12502
lthumb 4.21525 24.6537
rfemur -11.9355 -4.44694 9.54478
rtibia 59.2044
rfoot -0.375668 16.5296
rtoes -10.1565
lfemur -7.78128 3.75013 -21.4896
ltibia 26.9431
lfoot -7.35475 -6.70375
ltoes -7.54584
